<?xml version="1.0" encoding="utf-8"?>
<!-- Generator: Adobe Illustrator 27.0.0, SVG Export Plug-In . SVG Version: 6.00 Build 0)  -->
<svg version="1.1" id="Capa_1" xmlns="http://www.w3.org/2000/svg" xmlns:xlink="http://www.w3.org/1999/xlink" x="0px" y="0px"
	 viewBox="0 0 64 64" style="enable-background:new 0 0 64 64;" xml:space="preserve">
<style type="text/css">
	.st0{fill:#006BBF;}
	.st1{fill:#FFFFFF;}
</style>
<path class="st0" d="M2.7,33.7c0-1.1,0-2.3,0-3.4c0-0.2,0.1-0.3,0.1-0.5c0.2-3.6,1.1-7,2.7-10.2c5.2-10.4,13.7-16,25.3-16.8
	c5.3-0.3,10.3,0.8,15,3.4c8.3,4.5,13.3,11.5,15.1,20.7c0.2,1.1,0.3,2.3,0.5,3.4c0,1.1,0,2.3,0,3.4c0,0.2-0.1,0.3-0.1,0.5
	c-0.3,4.1-1.4,8-3.4,11.6C53.3,54,46.3,59,37,60.8c-1.1,0.2-2.2,0.3-3.3,0.5c-1.1,0-2.3,0-3.4,0c-0.1,0-0.3-0.1-0.4-0.1
	c-3.6-0.2-7-1.1-10.3-2.7c-9-4.4-14.5-11.6-16.4-21.4C2.9,36,2.8,34.8,2.7,33.7z M32,35.6C32,35.6,32,35.6,32,35.6
	c-1.8-0.1-3.6-0.1-5.4-0.1c-5.3,0-9.3,3.5-10,8.7c-0.2,1.6,0.1,3,1.4,4.1c1.5,1.3,3.2,2.4,5,3.2c3.8,1.7,7.8,2.3,11.9,1.7
	c4.2-0.6,7.8-2.2,11-4.9c1-0.8,1.5-2,1.5-3.3c0-4.9-3.8-9.1-8.6-9.5C36.6,35.5,34.3,35.6,32,35.6z M22.3,21.2c0,5.3,4.4,9.7,9.7,9.7
	c5.3,0,9.8-4.4,9.7-9.7c-0.1-5.4-4.4-9.6-9.7-9.6C26.6,11.5,22.3,15.9,22.3,21.2z"/>
<path class="st1" d="M32,35.6c2.3,0,4.6-0.2,6.8,0c4.9,0.4,8.6,4.6,8.6,9.5c0,1.3-0.5,2.4-1.5,3.3c-3.2,2.7-6.9,4.4-11,4.9
	c-4.1,0.6-8.1,0-11.9-1.7c-1.8-0.8-3.5-1.9-5-3.2c-1.3-1.1-1.6-2.5-1.4-4.1c0.7-5.2,4.7-8.7,10-8.7C28.4,35.5,30.2,35.6,32,35.6
	C32,35.6,32,35.6,32,35.6z"/>
<path class="st1" d="M22.3,21.2c0-5.3,4.3-9.6,9.7-9.7c5.3,0,9.7,4.3,9.7,9.6c0.1,5.3-4.4,9.7-9.7,9.7
	C26.7,30.9,22.3,26.5,22.3,21.2z"/>
</svg>
